<?xml version="1.0" encoding="utf-8"?>
<!-- Generator: Adobe Illustrator 26.2.1, SVG Export Plug-In . SVG Version: 6.00 Build 0)  -->
<svg version="1.1" id="Layer_1" xmlns="http://www.w3.org/2000/svg" xmlns:xlink="http://www.w3.org/1999/xlink" x="0px" y="0px"
	 viewBox="0 0 595.28 841.89" style="enable-background:new 0 0 595.28 841.89;" xml:space="preserve">
<style type="text/css">
	.st0{fill:#D8E02F;}
</style>
<g>
	<polygon class="st0" points="286.39,147.65 286.39,466.66 282.09,459.21 273.91,445.04 272.22,442.12 265.73,430.88 258.05,417.57 
		258.05,175.77 243.87,175.79 229.7,175.81 215.53,175.83 215.53,343.93 208.5,331.75 201.35,319.37 200.32,317.59 192.15,303.43 
		187.18,294.82 187.18,175.87 173.01,175.89 158.83,175.91 144.66,175.93 144.66,218.45 143.09,218.45 134.91,204.29 130.49,196.63 
		126.74,190.14 118.56,175.97 116.31,172.07 110.38,161.81 102.21,147.65 	"/>
	<polygon class="st0" points="484.75,147.65 476.87,161.3 470.65,172.07 468.68,175.48 460.49,189.67 456.47,196.63 452.3,203.86 
		444.11,218.04 442.3,221.18 435.92,232.23 428.13,245.72 427.73,246.41 419.54,260.59 413.95,270.28 411.35,274.78 403.16,288.96 
		399.78,294.82 394.98,303.14 386.86,317.19 386.78,317.33 385.61,319.37 378.59,331.52 371.43,331.53 357.26,331.55 348.04,331.56 
		343.09,331.57 343.09,303.22 357.26,303.2 364.41,303.19 365.04,303.19 371.43,291.68 372.91,289.01 380.79,274.83 380.81,274.79 
		385.61,266.47 388.98,260.64 388.99,260.61 397.17,246.45 397.18,246.43 399.78,241.93 405.35,232.27 405.37,232.24 413.55,218.08 
		413.56,218.06 413.95,217.39 413.96,217.37 421.74,203.9 421.75,203.88 428.13,192.83 429.92,189.72 429.94,189.69 438.12,175.53 
		428.13,175.54 413.95,175.56 385.61,175.6 371.43,175.62 357.26,175.64 343.09,175.66 328.91,175.68 328.91,417.57 321.27,430.81 
		314.74,442.12 313.08,444.99 304.89,459.18 300.57,466.66 300.57,147.65 	"/>
</g>
</svg>
